<svg id="SvgjsSvg1017" width="100%" height="100%"
  xmlns="http://www.w3.org/2000/svg" version="1.1" xlink="http://www.w3.org/1999/xlink"
  xmlns:svgjs="http://svgjs.com/svgjs" preserveAspectRatio="xMidYMid meet" viewBox="-0.000010812634172907565 0.000011544741028046701 300 132.37620544433594" overflow="visible">
  <defs id="SvgjsDefs1018"></defs>
  <g id="SvgjsG1019" transform="scale(0.7086167800453514)" opacity="1">
    <g id="SvgjsG1020" class="1mgs6Q1syB" transform="translate(132.46239602461387, -21.4584491876658) scale(1.5843520492886058)" light-content="false" non-strokable="false" fill="#f3871b">
      <path d="M36.344 58.605v4.938a.768.768 0 0 1-.531.738l-5.688 1.937c2.961 4.16 2.117 9.914-1.906 13.055a9.54 9.54 0 0 1-13.125-1.328 9.54 9.54 0 0 1 .746-13.172 9.541 9.541 0 0 1 13.191.164l5.75-1.949v-4.383a.781.781 0 1 1 1.563 0zM50 25.937a8.126 8.126 0 1 0 8.125 8.125A8.134 8.134 0 0 0 50 25.937zm27.75 36.27a9.6 9.6 0 0 0-6.707 2.73l-5.762-1.949v-4.382a.781.781 0 1 0-1.562 0v4.937c0 .332.215.633.531.738l5.688 1.938a9.553 9.553 0 0 0-1.825 5.656 9.635 9.635 0 0 0 16.45 6.812 9.635 9.635 0 0 0-6.813-16.45zm-26.938 5.055v-8.656a.789.789 0 0 0-.781-.782.788.788 0 0 0-.782.79v8.648a9.636 9.636 0 0 0-8.847 9.992 9.638 9.638 0 0 0 19.258 0 9.636 9.636 0 0 0-8.848-9.992zm39.27-48.812V49.7a4.946 4.946 0 0 1-4.945 4.945H14.864A4.946 4.946 0 0 1 9.918 49.7V18.45a4.946 4.946 0 0 1 4.946-4.906h70.273a4.946 4.946 0 0 1 4.945 4.906zm-9.02 15.625a.78.78 0 0 0-.343-.649l-11.637-8.02a33.544 33.544 0 0 0-17.445-5.831 14.334 14.334 0 0 0-3.274 0 33.543 33.543 0 0 0-17.445 5.832l-11.637 8.02a.771.771 0 0 0 0 1.28l11.637 8a33.583 33.583 0 0 0 17.445 5.836c.543.067 1.09.102 1.637.102.543 0 1.086-.031 1.625-.094a33.527 33.527 0 0 0 17.457-5.844l11.637-8.02a.758.758 0 0 0 .344-.624zM58.49 22.22a14.573 14.573 0 0 1 6.07 11.84c0 4.691-2.258 9.097-6.07 11.836a31.537 31.537 0 0 0 9.71-4.47l10.695-7.362L68.2 26.689a31.765 31.765 0 0 0-9.71-4.47zM51.469 47c-.98.044-1.957.044-2.938 0-6.601-.726-11.597-6.3-11.597-12.94s4.996-12.22 11.598-12.945h2.957a13.022 13.022 0 0 1 0 25.876zm8.219-12.937a9.691 9.691 0 0 0-16.54-6.851A9.69 9.69 0 0 0 50 43.75c5.348-.004 9.683-4.34 9.687-9.688zm-24.27 0c.004-4.7 2.277-9.11 6.101-11.844a31.742 31.742 0 0 0-9.707 4.469l-10.707 7.375 10.7 7.363H31.8a31.54 31.54 0 0 0 9.711 4.469 14.57 14.57 0 0 1-6.093-11.832z"></path>
    </g>
    <g id="SvgjsG1021" class="text" transform="translate(209.42999267578125, 186.08930623942987) scale(1)" light-content="false" fill="#424242">
      <path d="M-175.74 -35.1C-178.6 -37.74 -182.59 -39.06 -187.71 -39.06L-204.69 -38.82L-207.45 -11.4L-209.43 0C-203.87 0.36 -198.81 0.54 -194.25 0.54C-186.89 0.54 -181.25 -1.61 -177.33 -5.91C-173.41 -10.21 -171.45 -16.18 -171.45 -23.82C-171.45 -28.7 -172.88 -32.46 -175.74 -35.1ZM-186.03 -11.58C-187.31 -9.42 -189.13 -8.34 -191.49 -8.34C-192.57 -8.34 -194.31 -8.5 -196.71 -8.82L-196.41 -12.6L-193.89 -29.52C-192.33 -29.68 -190.81 -29.76 -189.33 -29.76C-187.49 -29.76 -186.16 -29.17 -185.34 -27.99C-184.52 -26.81 -184.11 -24.84 -184.11 -22.08C-184.11 -17.24 -184.75 -13.74 -186.03 -11.58Z M-136.32 -35.31C-139.18 -38.13 -143.23 -39.54 -148.47 -39.54C-152.95 -39.54 -156.8 -38.56 -160.02 -36.6C-163.24 -34.64 -165.68 -31.93 -167.34 -28.47C-169 -25.01 -169.83 -21.04 -169.83 -16.56C-169.83 -10.76 -168.39 -6.43 -165.51 -3.57C-162.63 -0.71 -158.57 0.72 -153.33 0.72C-148.85 0.72 -145.01 -0.27 -141.81 -2.25C-138.61 -4.23 -136.18 -6.97 -134.52 -10.47C-132.86 -13.97 -132.03 -17.96 -132.03 -22.44C-132.03 -28.2 -133.46 -32.49 -136.32 -35.31ZM-153.84 -28.92C-152.78 -29.64 -151.45 -30 -149.85 -30C-148.41 -30 -147.32 -29.74 -146.58 -29.22C-145.84 -28.7 -145.33 -27.85 -145.05 -26.67C-144.77 -25.49 -144.63 -23.84 -144.63 -21.72C-144.63 -18.04 -144.94 -15.21 -145.56 -13.23C-146.18 -11.25 -147.03 -9.9 -148.11 -9.18C-149.19 -8.46 -150.51 -8.1 -152.07 -8.1C-153.51 -8.1 -154.6 -8.36 -155.34 -8.88C-156.08 -9.4 -156.59 -10.24 -156.87 -11.4C-157.15 -12.56 -157.29 -14.22 -157.29 -16.38C-157.29 -20.06 -156.98 -22.89 -156.36 -24.87C-155.74 -26.85 -154.9 -28.2 -153.84 -28.92Z M-96.84 -35.31C-99.7 -38.13 -103.75 -39.54 -108.99 -39.54C-113.47 -39.54 -117.32 -38.56 -120.54 -36.6C-123.76 -34.64 -126.2 -31.93 -127.86 -28.47C-129.52 -25.01 -130.35 -21.04 -130.35 -16.56C-130.35 -10.76 -128.91 -6.43 -126.03 -3.57C-123.15 -0.71 -119.09 0.72 -113.85 0.72C-109.37 0.72 -105.53 -0.27 -102.33 -2.25C-99.13 -4.23 -96.7 -6.97 -95.04 -10.47C-93.38 -13.97 -92.55 -17.96 -92.55 -22.44C-92.55 -28.2 -93.98 -32.49 -96.84 -35.31ZM-114.36 -28.92C-113.3 -29.64 -111.97 -30 -110.37 -30C-108.93 -30 -107.84 -29.74 -107.1 -29.22C-106.36 -28.7 -105.85 -27.85 -105.57 -26.67C-105.29 -25.49 -105.15 -23.84 -105.15 -21.72C-105.15 -18.04 -105.46 -15.21 -106.08 -13.23C-106.7 -11.25 -107.55 -9.9 -108.63 -9.18C-109.71 -8.46 -111.03 -8.1 -112.59 -8.1C-114.03 -8.1 -115.12 -8.36 -115.86 -8.88C-116.6 -9.4 -117.11 -10.24 -117.39 -11.4C-117.67 -12.56 -117.81 -14.22 -117.81 -16.38C-117.81 -20.06 -117.5 -22.89 -116.88 -24.87C-116.26 -26.85 -115.42 -28.2 -114.36 -28.92Z M-57.72 -20.91C-56.34 -23.25 -55.65 -25.78 -55.65 -28.5C-55.65 -31.78 -56.8 -34.33 -59.1 -36.15C-61.4 -37.97 -64.55 -38.88 -68.55 -38.88L-86.31 -38.82L-89.07 -11.4L-91.11 0L-79.11 0L-78.09 -11.58L-74.01 -11.58C-72.89 -8.1 -71.91 -5.14 -71.07 -2.7L-70.23 -0.24L-69.21 0.72C-65.25 0.48 -61.15 -0.26 -56.91 -1.5L-56.61 -2.82C-58.81 -6.34 -61.13 -10.4 -63.57 -15C-61.05 -16.6 -59.1 -18.57 -57.72 -20.91ZM-69.6 -29.52C-68.86 -28.88 -68.49 -27.88 -68.49 -26.52C-68.49 -24.92 -68.8 -23.6 -69.42 -22.56C-70.04 -21.52 -71.07 -20.7 -72.51 -20.1L-76.89 -20.34L-75.39 -30.42L-73.17 -30.6C-71.53 -30.52 -70.34 -30.16 -69.6 -29.52Z M-19.56 -35.1C-22.42 -37.74 -26.41 -39.06 -31.53 -39.06L-48.51 -38.82L-51.27 -11.4L-53.25 0C-47.69 0.36 -42.63 0.54 -38.07 0.54C-30.71 0.54 -25.07 -1.61 -21.15 -5.91C-17.23 -10.21 -15.27 -16.18 -15.27 -23.82C-15.27 -28.7 -16.7 -32.46 -19.56 -35.1ZM-29.85 -11.58C-31.13 -9.42 -32.95 -8.34 -35.31 -8.34C-36.39 -8.34 -38.13 -8.5 -40.53 -8.82L-40.23 -12.6L-37.71 -29.52C-36.15 -29.68 -34.63 -29.76 -33.15 -29.76C-31.31 -29.76 -29.98 -29.17 -29.16 -27.99C-28.34 -26.81 -27.93 -24.84 -27.93 -22.08C-27.93 -17.24 -28.57 -13.74 -29.85 -11.58Z M19.5 -20.91C20.88 -23.25 21.57 -25.78 21.57 -28.5C21.57 -31.78 20.42 -34.33 18.12 -36.15C15.82 -37.97 12.67 -38.88 8.67 -38.88L-9.09 -38.82L-11.85 -11.4L-13.89 0L-1.89 0L-0.87 -11.58L3.21 -11.58C4.33 -8.1 5.31 -5.14 6.15 -2.7L6.99 -0.24L8.01 0.72C11.97 0.48 16.07 -0.26 20.31 -1.5L20.61 -2.82C18.41 -6.34 16.09 -10.4 13.65 -15C16.17 -16.6 18.12 -18.57 19.5 -20.91ZM7.62 -29.52C8.36 -28.88 8.73 -27.88 8.73 -26.52C8.73 -24.92 8.42 -23.6 7.8 -22.56C7.18 -21.52 6.15 -20.7 4.71 -20.1L0.33 -20.34L1.83 -30.42L4.05 -30.6C5.69 -30.52 6.88 -30.16 7.62 -29.52Z M36.99 -12.6L40.89 -38.82L28.71 -38.82L25.95 -11.4L23.91 0L35.91 0Z M73.77 -37.44C70.21 -38.84 66.51 -39.54 62.67 -39.54C59.39 -39.54 56.42 -38.91 53.76 -37.65C51.1 -36.39 49.01 -34.66 47.49 -32.46C45.97 -30.26 45.21 -27.84 45.21 -25.2C45.21 -23.24 45.67 -21.58 46.59 -20.22C47.51 -18.86 48.59 -17.78 49.83 -16.98C51.07 -16.18 52.67 -15.32 54.63 -14.4C56.35 -13.6 57.62 -12.91 58.44 -12.33C59.26 -11.75 59.67 -11.06 59.67 -10.26C59.67 -9.66 59.41 -9.15 58.89 -8.73C58.37 -8.31 57.53 -8.1 56.37 -8.1C54.93 -8.1 53.21 -8.5 51.21 -9.3C49.21 -10.1 47.35 -11.22 45.63 -12.66L44.37 -11.94L41.49 -1.56C45.81 -0.04 50.03 0.72 54.15 0.72C57.59 0.72 60.66 0.09 63.36 -1.17C66.06 -2.43 68.16 -4.14 69.66 -6.3C71.16 -8.46 71.91 -10.8 71.91 -13.32C71.91 -15.28 71.43 -16.95 70.47 -18.33C69.51 -19.71 68.38 -20.81 67.08 -21.63C65.78 -22.45 64.15 -23.32 62.19 -24.24C60.47 -25.04 59.22 -25.71 58.44 -26.25C57.66 -26.79 57.27 -27.44 57.27 -28.2C57.27 -28.8 57.56 -29.31 58.14 -29.73C58.72 -30.15 59.51 -30.36 60.51 -30.36C61.51 -30.36 62.8 -30.06 64.38 -29.46C65.96 -28.86 67.53 -28.04 69.09 -27L70.77 -27.72Z M115.35 -38.82L103.17 -38.82L101.67 -24.12L96.09 -24L90.03 -24.12L92.19 -38.82L80.01 -38.82L77.25 -11.4L75.21 0L87.21 0L88.29 -12.6L88.53 -14.34L94.23 -14.52L100.71 -14.4L100.41 -11.4L98.37 0L110.37 0L111.45 -12.6Z M149.61 -37.98L149.07 -38.82L120.15 -38.82L118.41 -30.12L119.01 -29.28L127.05 -29.64L127.83 -29.64L125.91 -11.4L123.87 0L135.81 0L136.89 -12.6L139.29 -29.64L140.07 -29.64L147.93 -29.28Z M164.01 -29.64L170.19 -29.64L179.67 -29.28L181.53 -37.98L180.99 -38.82L153.21 -38.82L150.39 -11.4L148.41 0L175.71 0L177.51 -8.7L176.97 -9.54L166.95 -9.18L161.19 -9.18L161.49 -12.6L161.85 -14.88L167.25 -14.88L174.15 -14.7L175.95 -23.46L175.41 -24.3L169.11 -24.12L163.23 -24.12Z M196.41 -29.64L202.59 -29.64L212.07 -29.28L213.93 -37.98L213.39 -38.82L185.61 -38.82L182.79 -11.4L180.81 0L208.11 0L209.91 -8.7L209.37 -9.54L199.35 -9.18L193.59 -9.18L193.89 -12.6L194.25 -14.88L199.65 -14.88L206.55 -14.7L208.35 -23.46L207.81 -24.3L201.51 -24.12L195.63 -24.12Z"></path>
    </g>
  </g>
</svg>